# xmcd
#
# Track frame offsets: 
#        150
#        32705
#        53874
#        79437
#        100571
#        120230
#        138558
#        164834
#        187607
#        216137
#        231539
#        251772
#        269716
#        314804
#        332506
#
# Disc length: 4791 seconds
#
# Revision: 5
# Processed by: cddbd v1.5.2PL0 Copyright (c) Steve Scherf et al.
# Submitted via: ExactAudioCopy v1.3
#
DISCID=df12b50f
DTITLE=Various Artist - Akella Presents - vol. 01 - Various Styles Of
DTITLE=Blues  CD1
DYEAR=2013
DGENRE=Blues
TTITLE0=RONNIE EARL - For Abby
TTITLE1=BIG HOUSE - Walkin' On Me
TTITLE2=BTO - House of the Rising Sun
TTITLE3=JOHN MAYALL - Congo Square
TTITLE4=The BONE SHAKERS - Let's Straighten It Out
TTITLE5=SCOTT ELLISON - Darker Shade of Blue
TTITLE6=The JUKE JOINTS - Bad Bad Feeling
TTITLE7=CHRIS REA - Lookin' for the Summer
TTITLE8=MIKE and The MECHANICS - Mea Culpa
TTITLE9=BILL WYMAN'S RHYTHM KINGS - Anyway the Wind Blow
TTITLE10=JOE COCKER - My Father's Son
TTITLE11=DELBERT McCLINTON - Same Kind of Crazy
TTITLE12=The HOAX - Swallow My Pride
TTITLE13=REBEL PRIDE - Flirty Flirty
TTITLE14=MIGHTY MO RODGERS - Black Paris Blues
EXTD=
EXTT0=
EXTT1=
EXTT2=
EXTT3=
EXTT4=
EXTT5=
EXTT6=
EXTT7=
EXTT8=
EXTT9=
EXTT10=
EXTT11=
EXTT12=
EXTT13=
EXTT14=
PLAYORDER=
